PathFileType	4	(X/Y/Z)	/Users/itak/Documents/Research/Walk-IL/dataset/trc/00396_00012.trc
DataRate	CameraRate	NumFrames	NumMarkers	Units	OrigDataRate	OrigDataStartFrame	OrigNumFrames
100.000000	100.000000	4	53	mm	100.000000	363	582
Frame#	Time	RPSI			LPSI			L3			STRN			T10			C7			CLAV			RBAK			LBAK			LSHO			LUPA			LAEL			LAOL			LWTS			LWPS			LFRA			LIFD			LHPS			LHTS			RSHO			RUPA			RAEL			RAOL			RWTS			RWPS			RFRA			RIFD			RHTS			RHPS			RBHD			LFHD			RFHD			LBHD			LHIP			RASI			LASI			LKNE			LTHI			LANK			LTIP			LTOE			LMT1			LMT5			LHEE			RKNE			RTHI			RANK			RTIP			RTOE			RMT1			RMT5			RHEE			RHIP			
		X1	Y1	Z1	X2	Y2	Z2	X3	Y3	Z3	X4	Y4	Z4	X5	Y5	Z5	X6	Y6	Z6	X7	Y7	Z7	X8	Y8	Z8	X9	Y9	Z9	X10	Y10	Z10	X11	Y11	Z11	X12	Y12	Z12	X13	Y13	Z13	X14	Y14	Z14	X15	Y15	Z15	X16	Y16	Z16	X17	Y17	Z17	X18	Y18	Z18	X19	Y19	Z19	X20	Y20	Z20	X21	Y21	Z21	X22	Y22	Z22	X23	Y23	Z23	X24	Y24	Z24	X25	Y25	Z25	X26	Y26	Z26	X27	Y27	Z27	X28	Y28	Z28	X29	Y29	Z29	X30	Y30	Z30	X31	Y31	Z31	X32	Y32	Z32	X33	Y33	Z33	X34	Y34	Z34	X35	Y35	Z35	X36	Y36	Z36	X37	Y37	Z37	X38	Y38	Z38	X39	Y39	Z39	X40	Y40	Z40	X41	Y41	Z41	X42	Y42	Z42	X43	Y43	Z43	X44	Y44	Z44	X45	Y45	Z45	X46	Y46	Z46	X47	Y47	Z47	X48	Y48	Z48	X49	Y49	Z49	X50	Y50	Z50	X51	Y51	Z51	X52	Y52	Z52	X53	Y53	Z53	

364	3.63	218.8453521728516	963.6128540039062	-836.537841796875	255.3197479248047	939.589111328125	-712.0271606445312	240.4629821777344	1038.9580078125	-771.8063354492188	19.76067543029785	1196.69677734375	-724.2239990234375	256.3325500488281	1141.162231445312	-765.862548828125	229.7288360595703	1391.14501953125	-747.9744262695312	75.62834930419922	1314.168701171875	-730.8107299804688	259.8697814941406	1245.95703125	-823.6231079101562	259.7062683105469	1352.068237304688	-647.7349853515625	181.0943603515625	1366.490966796875	-584.5613403320312	214.6495361328125	1246.848876953125	-522.3872680664062	200.5683746337891	1050.13427734375	-497.0750122070312	244.2137756347656	1028.349487304688	-567.9421997070312	114.8388900756836	829.8741455078125	-527.841552734375	171.6752166748047	823.7922973632812	-470.1390991210938	190.3005981445312	945.6846923828125	-484.4458618164062	132.6934051513672	652.3370971679688	-522.94091796875	163.7611236572266	737.5387573242188	-473.1099853515625	111.1919860839844	731.3370361328125	-502.6248168945312	150.8132934570312	1374.65966796875	-894.7901611328125	158.6685791015625	1314.145629882812	-954.56005859375	178.1895141601562	1056.2470703125	-1005.87109375	194.5964202880859	1045.066162109375	-912.0712890625	68.14318084716797	832.1983642578125	-991.5536499023438	109.9265289306641	828.7579956054688	-1050.14208984375	159.1449890136719	991.1729736328125	-1026.503173828125	47.91631317138672	661.8610229492188	-1011.45703125	48.8763542175293	734.4546508789062	-1027.878295898438	109.3393478393555	741.3458251953125	-1059.03955078125	150.9983062744141	1584.887817382812	-821.6089477539062	74.22083282470703	1570.253051757812	-638.2786865234375	33.7913703918457	1585.651000976562	-754.6976928710938	218.4507141113281	1564.598510742188	-676.5924682617188	194.8125762939453	922.2623901367188	-582.0179443359375	-1.320581674575806	970.1141967773438	-843.412841796875	74.76705932617188	935.1893310546875	-593.7354736328125	21.77836799621582	456.353515625	-593.7215576171875	61.18656539916992	583.2177124023438	-587.6724853515625	381.1398315429688	195.620361328125	-671.5249633789062	201.6945495605469	310.7633666992188	-619.7880859375	239.6296234130859	38.09959030151367	-719.677978515625	282.1813049316406	98.38211822509766	-753.826416015625	309.0715026855469	91.02013397216797	-651.4105224609375	395.2786865234375	226.7867126464844	-729.3241577148438	-7.901405811309814	476.5067138671875	-891.6346435546875	1.0352863073349	741.8888549804688	-913.1013793945312	50.61952209472656	48.44213485717773	-883.97119140625	-16.04012680053711	347.8063659667969	-879.4862670898438	-110.6786727905273	39.74584579467773	-787.0347900390625	-32.08691787719727	43.95600128173828	-770.81640625	-31.6055965423584	38.36370086669922	-872.6718139648438	132.3290557861328	37.23027801513672	-846.9705200195312	112.6881866455078	961.9315795898438	-929.3969116210938	
365	3.64	209.6380767822266	964.8087158203125	-836.2134399414062	246.7005462646484	941.2814331054688	-711.8499145507812	232.0961608886719	1040.391723632812	-772.4111938476562	10.52167987823486	1198.33447265625	-722.9373168945312	247.5386962890625	1142.948364257812	-767.3040771484375	219.9044647216797	1392.875610351562	-749.1571044921875	66.45647430419922	1315.883544921875	-730.0278930664062	249.3253479003906	1247.72705078125	-825.3373413085938	251.2420043945312	1353.949462890625	-649.468994140625	173.4335021972656	1368.130615234375	-585.0883178710938	209.0536956787109	1248.813232421875	-523.6351318359375	197.9435119628906	1051.980346679688	-498.6892395019531	240.2436981201172	1030.735229492188	-570.5167236328125	114.2241668701172	830.3463134765625	-528.3451538085938	172.4571990966797	825.1650390625	-471.4234313964844	189.2218780517578	947.3206176757812	-485.8938293457031	136.1325378417969	652.996337890625	-523.304931640625	166.1823577880859	738.882568359375	-474.080322265625	112.8212127685547	731.6302490234375	-503.0492858886719	139.2526702880859	1376.47509765625	-894.9671630859375	145.9551696777344	1315.954833984375	-955.043701171875	162.5685272216797	1058.005493164062	-1007.568420410156	181.0582122802734	1046.383178710938	-914.2495727539062	49.73517608642578	835.6141357421875	-991.5568237304688	90.47959899902344	831.6341552734375	-1050.988525390625	142.5377960205078	993.182861328125	-1028.013549804688	27.27514457702637	665.79931640625	-1012.086608886719	28.19929885864258	738.5376586914062	-1028.341796875	88.30261993408203	744.3139038085938	-1060.170288085938	139.3223266601562	1586.619873046875	-821.5189819335938	64.6541748046875	1571.251098632812	-637.3148193359375	22.9439525604248	1586.580444335938	-753.2944946289062	208.3432159423828	1566.450439453125	-677.3099365234375	186.4860382080078	924.7659301757812	-581.7603149414062	-10.57402515411377	971.1599731445312	-843.1365356445312	66.50141906738281	937.7222290039062	-593.7208251953125	4.218757152557373	461.2874450683594	-591.1182861328125	46.50719451904297	587.1798095703125	-585.3571166992188	355.5098876953125	191.1268615722656	-672.6580200195312	180.4504699707031	311.5840759277344	-619.1971435546875	206.1802520751953	38.99301147460938	-713.25830078125	251.0741729736328	95.11787414550781	-749.9873657226562	278.9607543945312	90.94870758056641	-647.9028930664062	370.0675659179688	219.8515930175781	-731.7332763671875	-10.32034301757812	476.2019348144531	-892.0426635742188	-6.062146186828613	742.0197143554688	-912.324951171875	50.69975280761719	48.43480682373047	-883.8829956054688	-17.2975902557373	347.4859008789062	-879.9242553710938	-110.6453552246094	39.74666976928711	-787.0533447265625	-32.09380722045898	43.96535873413086	-770.8790893554688	-31.60183334350586	38.34082412719727	-872.713134765625	131.9774017333984	36.81621551513672	-846.5264282226562	103.2982406616211	962.9384155273438	-929.026611328125	
366	3.65	200.6081085205078	966.04150390625	-835.825927734375	238.1287994384766	942.8966674804688	-711.4990234375	223.7701263427734	1041.766357421875	-772.8801879882812	1.377996206283569	1199.947631835938	-721.6648559570312	238.8637847900391	1144.642822265625	-768.4864501953125	210.2017517089844	1394.507202148438	-750.2022705078125	57.27361679077148	1317.610961914062	-729.2095336914062	238.9086608886719	1249.378173828125	-826.8057861328125	242.8578796386719	1355.78369140625	-651.1113891601562	165.8377227783203	1369.744506835938	-585.5543823242188	203.6011199951172	1250.870727539062	-524.8234252929688	195.5447692871094	1053.911376953125	-500.3151550292969	236.4466857910156	1033.280395507812	-573.1185302734375	113.371696472168	831.1590576171875	-528.80419921875	173.1934661865234	826.6560668945312	-472.8182983398438	188.2832336425781	949.0697021484375	-487.40380859375	138.7841644287109	653.9883422851562	-523.9025268554688	168.2433929443359	740.3721313476562	-475.2700500488281	113.7531661987305	732.4024047851562	-503.5439758300781	127.9595108032227	1378.208984375	-895.016357421875	133.6201324462891	1317.718505859375	-955.352294921875	147.2798767089844	1059.750610351562	-1009.022399902344	167.6812133789062	1047.726196289062	-916.2633666992188	31.39864158630371	839.1309814453125	-991.4103393554688	71.15402984619141	834.5855102539062	-1051.606201171875	126.1953125	995.1777954101562	-1029.27587890625	6.63798189163208	669.8319091796875	-1012.456298828125	7.528186321258545	742.7154541015625	-1028.546020507812	67.27203369140625	747.381591796875	-1061.044311523438	127.7099609375	1588.28515625	-821.3043823242188	55.15130615234375	1572.145385742188	-636.2734985351562	12.30528545379639	1587.367309570312	-751.7825317382812	198.3170471191406	1568.300170898438	-677.8956298828125	178.1876983642578	927.3430786132812	-581.4188232421875	-19.78107643127441	972.1243286132812	-842.8590698242188	58.15351104736328	940.1776123046875	-593.656005859375	-12.63840198516846	466.2613830566406	-588.3990478515625	32.36427688598633	591.19091796875	-582.8668823242188	329.1829528808594	185.3844757080078	-673.5054931640625	159.2810974121094	311.863037109375	-618.4432983398438	171.8396453857422	39.93110275268555	-707.0718383789062	219.3890991210938	91.72350311279297	-746.2235717773438	248.0966186523438	90.11935424804688	-644.524658203125	344.1932067871094	211.7572326660156	-733.7205200195312	-12.42642021179199	475.9266662597656	-892.600830078125	-13.11603355407715	742.0881958007812	-911.664794921875	50.76375961303711	48.42603302001953	-883.8118286132812	-18.34782791137695	347.2214050292969	-880.4913330078125	-110.6080856323242	39.76009368896484	-787.0925903320312	-32.02839279174805	43.9713134765625	-770.9658203125	-31.59225654602051	38.3180046081543	-872.7689208984375	131.5425262451172	36.27667617797852	-846.0366821289062	94.16252136230469	963.8588256835938	-928.5521240234375	
367	3.66	191.7611236572266	967.3258666992188	-835.3900146484375	229.6088409423828	944.3930053710938	-711.0119018554688	215.4486236572266	1043.05419921875	-773.212158203125	-7.689582824707031	1201.482788085938	-720.4031982421875	230.2329254150391	1146.212036132812	-769.416015625	200.5955352783203	1396.009887695312	-751.112060546875	48.00534820556641	1319.295043945312	-728.3571166992188	228.6011047363281	1250.889770507812	-828.0525512695312	234.5098876953125	1357.517333984375	-652.6407470703125	158.2785797119141	1371.29541015625	-585.9637451171875	198.2374114990234	1252.983154296875	-525.9386596679688	193.2972717285156	1055.893432617188	-501.952392578125	232.7650909423828	1035.943115234375	-575.7290649414062	112.34033203125	832.2338256835938	-529.1749877929688	173.8755950927734	828.2164306640625	-474.3121337890625	187.4368896484375	950.9049072265625	-488.9698486328125	140.5890502929688	655.2260131835938	-524.7376098632812	169.9430236816406	741.93359375	-476.6830749511719	114.0551834106445	733.5325317382812	-504.0664367675781	116.8874435424805	1379.829956054688	-894.9435424804688	121.6300277709961	1319.4052734375	-955.501953125	132.3491668701172	1061.45166015625	-1010.252014160156	154.4646148681641	1049.058227539062	-918.0946655273438	13.16582870483398	842.7355346679688	-991.1127319335938	51.97996139526367	837.5874633789062	-1051.9951171875	110.1326522827148	997.1224365234375	-1030.298461914062	-13.96430969238281	673.9370727539062	-1012.558410644531	-13.10684490203857	746.9671020507812	-1028.483764648438	46.27736663818359	750.5264282226562	-1061.653442382812	116.1806182861328	1589.853515625	-820.966552734375	45.7165641784668	1572.92041015625	-635.15771484375	1.906916737556458	1588.013793945312	-750.16455078125	188.3881072998047	1570.101806640625	-678.3549194335938	169.9046936035156	929.8699340820312	-581.0192260742188	-28.95520401000977	972.9746704101562	-842.5512084960938	49.72193145751953	942.4949951171875	-593.52294921875	-28.81905555725098	471.1815490722656	-585.5944213867188	18.73952293395996	595.1707153320312	-580.2259521484375	302.1632995605469	178.49658203125	-674.0809326171875	138.1299438476562	311.5587158203125	-617.5094604492188	136.8434753417969	40.90139007568359	-701.08642578125	187.0787200927734	88.27736663818359	-742.4966430664062	216.6370697021484	88.58639526367188	-641.226318359375	317.6024475097656	202.6561584472656	-735.2877807617188	-14.25900840759277	475.6758728027344	-893.3023681640625	-20.14686393737793	742.0953979492188	-911.1290893554688	50.8084716796875	48.41773223876953	-883.761474609375	-19.22674751281738	347.008056640625	-881.1591186523438	-110.560676574707	39.78004455566406	-787.150390625	-31.87197303771973	43.96195220947266	-771.0730590820312	-31.57838439941406	38.29555511474609	-872.8367309570312	131.0648040771484	35.67679595947266	-845.5386352539062	85.18251800537109	964.6983032226562	-927.9780883789062	
